<?xml version="1.0" standalone="no"?>
<!DOCTYPE svg PUBLIC "-//W3C//DTD SVG 20010904//EN"
 "http://www.w3.org/TR/2001/REC-SVG-20010904/DTD/svg10.dtd">
<svg version="1.0" xmlns="http://www.w3.org/2000/svg"
 width="410.000000pt" height="106.000000pt" viewBox="0 0 410.000000 106.000000"
 preserveAspectRatio="xMidYMid meet">

<g transform="translate(0.000000,106.000000) scale(0.100000,-0.100000)"
fill="#000000" stroke="none">
<path d="M0 530 l0 -530 2050 0 2050 0 0 530 0 530 -2050 0 -2050 0 0 -530z
m909 274 c-56 -125 -109 -268 -102 -275 5 -4 19 -9 33 -12 22 -4 21 -4 -6 -6
-17 0 -36 -7 -42 -14 -6 -7 -32 -73 -58 -147 -26 -74 -51 -139 -57 -145 -12
-12 -15 -21 48 158 26 76 46 140 43 142 -8 8 -261 -25 -274 -36 -14 -11 -75
-163 -110 -274 -13 -40 -23 -59 -23 -45 0 14 24 90 54 170 30 79 52 147 49
149 -10 11 -171 -30 -198 -50 -16 -12 -27 -16 -24 -8 7 21 71 49 148 63 40 8
78 20 85 28 7 7 37 72 66 143 50 124 69 163 69 138 0 -6 -25 -70 -55 -143 -30
-73 -53 -136 -51 -139 5 -8 245 18 265 28 8 4 38 66 66 137 55 138 94 219 101
211 2 -2 -10 -35 -27 -73z m1660 -330 c30 -40 31 -44 12 -44 -11 0 -25 9 -31
20 -16 30 -102 29 -122 -1 -7 -12 -21 -20 -31 -18 -15 3 -9 16 35 76 l53 73
26 -31 c15 -17 41 -50 58 -75z m-1349 66 l0 -30 70 0 70 0 0 30 c0 20 5 30 15
30 12 0 15 -14 15 -70 0 -56 -3 -70 -15 -70 -9 0 -15 9 -15 25 0 24 -2 25 -70
25 -68 0 -70 -1 -70 -25 0 -16 -6 -25 -15 -25 -12 0 -15 14 -15 70 0 56 3 70
15 70 10 0 15 -10 15 -30z m368 -37 c40 -54 47 -69 34 -72 -9 -2 -23 6 -30 18
-11 16 -25 21 -62 21 -37 0 -51 -5 -62 -21 -7 -12 -21 -20 -30 -18 -13 3 -6
18 34 72 27 37 54 67 58 67 4 0 31 -30 58 -67z m270 55 c29 -29 0 -78 -46 -78
-34 0 -17 -17 22 -22 45 -5 45 -28 1 -28 -25 0 -43 8 -61 25 -14 14 -36 25
-49 25 -20 0 -25 -5 -25 -25 0 -16 -6 -25 -15 -25 -12 0 -15 14 -15 70 l0 70
88 0 c55 0 92 -4 100 -12z m252 -3 c0 -12 -16 -15 -85 -15 -50 0 -85 -4 -85
-10 0 -6 28 -10 63 -10 67 0 107 -18 107 -49 0 -33 -22 -41 -112 -41 -72 0
-88 3 -88 15 0 12 16 15 85 15 50 0 85 4 85 10 0 6 -28 10 -63 10 -67 0 -107
18 -107 49 0 33 22 41 112 41 72 0 88 -3 88 -15z m70 -15 l0 -31 68 3 c65 3
67 4 70 31 2 15 9 27 18 27 11 0 14 -16 14 -70 0 -56 -3 -70 -15 -70 -9 0 -15
9 -15 25 0 24 -2 25 -70 25 -68 0 -70 -1 -70 -25 0 -16 -6 -25 -15 -25 -12 0
-15 14 -15 70 0 56 3 70 15 70 10 0 15 -10 15 -30z m650 16 c0 -8 -30 -33 -67
-55 l-68 -41 68 0 c53 0 67 -3 67 -15 0 -12 -18 -15 -100 -15 -123 0 -129 11
-34 67 l66 38 -66 3 c-50 2 -66 7 -66 17 0 12 19 15 100 15 81 0 100 -3 100
-14z m140 -41 l0 -55 85 0 c69 0 85 -3 85 -15 0 -12 -18 -15 -100 -15 l-100 0
0 70 c0 56 3 70 15 70 12 0 15 -13 15 -55z m240 -15 c0 -56 -3 -70 -15 -70
-12 0 -15 14 -15 70 0 56 3 70 15 70 12 0 15 -14 15 -70z m104 19 l38 -51 36
51 c21 28 45 51 55 51 9 0 17 -1 17 -3 0 -2 -24 -36 -54 -76 l-54 -72 -48 63
c-26 35 -52 69 -57 76 -7 8 -4 12 10 12 11 0 34 -21 57 -51z m376 36 c0 -12
-16 -15 -86 -15 -64 0 -85 -3 -82 -12 3 -8 27 -14 62 -16 76 -4 71 -26 -7 -30
-89 -5 -67 -22 28 -22 69 0 85 -3 85 -15 0 -12 -18 -15 -100 -15 l-100 0 0 70
0 70 100 0 c82 0 100 -3 100 -15z m-790 -110 c0 -8 -7 -15 -15 -15 -8 0 -15 7
-15 15 0 8 7 15 15 15 8 0 15 -7 15 -15z"/>
<path d="M2475 510 c-3 -5 3 -10 15 -10 12 0 18 5 15 10 -3 6 -10 10 -15 10
-5 0 -12 -4 -15 -10z"/>
<path d="M1515 510 c-3 -5 3 -10 15 -10 12 0 18 5 15 10 -3 6 -10 10 -15 10
-5 0 -12 -4 -15 -10z"/>
<path d="M1703 528 c2 -9 25 -13 67 -13 42 0 65 4 68 13 3 9 -15 12 -68 12
-53 0 -71 -3 -67 -12z"/>
</g>
</svg>
